External Loads File
version=1
nRows=77
nColumns=13
Range=5.000000e-03-10 seconds
endheader
time 	forceRightX 	forceRightY 	forceRightZ 	pointRightX 	pointRightY 	pointRightZ 	forceLeftX 	forceLeftY 	forceLeftZ 	pointLeftX 	pointLeftY 	pointLeftZ 		
5.005000 -41.593419 358.378631 -0.000000 0.381882 0.431019 -0.104744 132.967537 -83.969953 -0.000000 0.127025 0.199904 -0.338909
5.010000 -43.054412 405.338229 -0.000000 0.384550 0.422388 -0.104342 118.382390 -91.833260 -0.000000 0.121788 0.207616 -0.338884
5.015000 -46.249875 456.295981 -0.000000 0.387202 0.412918 -0.103602 105.401730 -97.600435 -0.000000 0.116934 0.216111 -0.339100
5.020000 -50.997733 510.363399 -0.000000 0.389906 0.402571 -0.102652 95.071690 -102.155712 -0.000000 0.112400 0.225133 -0.339183
5.025000 -57.556756 566.148612 -0.000000 0.392328 0.391861 -0.102458 87.779088 -105.829364 -0.000000 0.108448 0.234623 -0.339247
5.030000 -66.791406 621.837902 -0.000000 0.394344 0.381541 -0.103097 83.412481 -108.429472 -0.000000 0.105116 0.244162 -0.339274
5.035000 -77.132261 675.833965 -0.000000 0.395815 0.371076 -0.103480 81.134753 -109.751077 -0.000000 0.102568 0.253740 -0.339333
5.040000 -87.157304 726.936820 -0.000000 0.396721 0.360094 -0.103178 80.191255 -109.432861 -0.000000 0.100695 0.263155 -0.339377
5.045000 -95.854329 774.529835 -0.000000 0.397153 0.349016 -0.102857 80.092516 -107.318355 -0.000000 0.099451 0.272839 -0.339536
5.050000 -103.255707 818.422380 -0.000000 0.397201 0.337978 -0.102769 80.674840 -103.563854 -0.000000 0.098792 0.282609 -0.339743
5.055000 -108.424257 858.901492 -0.000000 0.396908 0.326857 -0.102902 81.708916 -98.759157 -0.000000 0.098749 0.292484 -0.339946
5.060000 -109.985390 896.494915 -0.000000 0.396066 0.315648 -0.102831 82.923750 -93.662216 -0.000000 0.099346 0.302730 -0.340170
5.065000 -109.270652 931.479063 -0.000000 0.395001 0.304557 -0.102413 84.292439 -88.730854 -0.000000 0.100562 0.312906 -0.340232
5.070000 -105.057062 964.486366 -0.000000 0.393200 0.293554 -0.102987 85.480847 -84.498197 -0.000000 0.102527 0.323240 -0.340420
5.075000 -98.586043 995.849030 -0.000000 0.391120 0.282759 -0.102972 86.417936 -81.098716 -0.000000 0.105117 0.333433 -0.340620
5.080000 -89.698590 1025.990350 -0.000000 0.388636 0.272276 -0.102967 86.936540 -78.675273 -0.000000 0.108277 0.343646 -0.340712
5.085000 -78.327561 1055.224882 -0.000000 0.385552 0.261859 -0.102939 86.869503 -77.286099 -0.000000 0.112030 0.353587 -0.340741
5.090000 -64.441504 1083.766189 -0.000000 0.382040 0.251862 -0.102817 85.984768 -76.926530 -0.000000 0.116348 0.363649 -0.340867
5.095000 -48.510491 1111.660662 -0.000000 0.377875 0.242070 -0.102747 84.012314 -77.490662 -0.000000 0.121231 0.373364 -0.340891
5.100000 -32.264598 1138.744206 -0.000000 0.373420 0.232592 -0.102798 80.755175 -78.713272 -0.000000 0.126663 0.382470 -0.341023
5.105000 -12.338466 1164.780001 -0.000000 0.368326 0.223464 -0.102772 75.712147 -80.586456 -0.000000 0.132666 0.391704 -0.341170
5.110000 9.816988 1189.058099 -0.000000 0.362831 0.214630 -0.102634 68.787841 -82.526341 -0.000000 0.139168 0.400692 -0.341337
5.115000 33.736866 1210.664016 -0.000000 0.356947 0.206223 -0.102534 59.958114 -83.725663 -0.000000 0.146172 0.409332 -0.341414
5.120000 60.333345 1228.389273 -0.000000 0.350684 0.198193 -0.102396 49.362247 -83.173275 -0.000000 0.153638 0.417824 -0.341520
5.125000 88.754528 1240.825590 -0.000000 0.344034 0.190547 -0.102276 37.589661 -79.627084 -0.000000 0.161527 0.425848 -0.341680
5.130000 118.510833 1246.384493 -0.000000 0.337087 0.183398 -0.102063 25.495384 -71.877175 -0.000000 0.169808 0.433424 -0.341769
5.135000 147.953868 1243.490197 -0.000000 0.329905 0.176886 -0.101818 14.158573 -58.845464 -0.000000 0.178196 0.440498 -0.341771
5.140000 177.602652 1230.327789 -0.000000 0.322447 0.171065 -0.101566 4.542679 -39.814320 -0.000000 0.186880 0.447033 -0.341809
5.145000 206.679694 1205.316880 -0.000000 0.314925 0.165552 -0.101220 -2.432058 -14.553956 -0.000000 0.195789 0.452981 -0.341819
5.150000 234.677048 1167.225823 -0.000000 0.307211 0.160639 -0.100804 -6.107023 16.467351 -0.000000 0.204974 0.458341 -0.341641
5.155000 260.447697 1115.664194 -0.000000 0.299585 0.156435 -0.100380 -6.182149 51.981035 -0.000000 0.214739 0.462840 -0.342033
5.160000 280.999448 1051.799483 -0.000000 0.291943 0.152670 -0.099906 -2.947712 89.867400 -0.000000 0.224182 0.466823 -0.341971
5.165000 296.864805 977.188908 -0.000000 0.284171 0.149577 -0.099401 2.938106 127.330000 -0.000000 0.233730 0.470164 -0.342096
5.170000 307.454064 894.578153 -0.000000 0.276055 0.147240 -0.098958 10.347257 161.426367 -0.000000 0.243188 0.473446 -0.342723
5.175000 312.164966 807.263948 -0.000000 0.267596 0.145600 -0.098733 17.859843 189.955792 -0.000000 0.252609 0.476822 -0.342636
5.180000 310.100839 718.661166 -0.000000 0.258767 0.144921 -0.098783 23.974546 212.087853 -0.000000 0.261708 0.479670 -0.342806
5.185000 302.183810 630.814176 -0.000000 0.249800 0.144932 -0.098911 27.989047 228.206594 -0.000000 0.270918 0.481842 -0.343054
5.190000 287.903649 545.364254 -0.000000 0.240994 0.145577 -0.099155 29.181438 239.423329 -0.000000 0.279839 0.483218 -0.343263
5.195000 268.421397 462.165846 -0.000000 0.232419 0.146844 -0.099507 27.628248 246.954872 -0.000000 0.288488 0.483968 -0.343413
5.200000 245.090964 380.157779 -0.000000 0.224047 0.148476 -0.099848 23.695371 251.990754 -0.000000 0.296894 0.484008 -0.343692
5.205000 219.218242 297.909946 -0.000000 0.215839 0.150755 -0.100020 17.849109 255.724477 -0.000000 0.304899 0.483003 -0.344007
5.210000 192.012791 214.020072 -0.000000 0.207718 0.153732 -0.100274 10.624657 259.363646 -0.000000 0.312628 0.481392 -0.344519
5.215000 164.296287 127.609168 -0.000000 0.199475 0.157431 -0.100625 2.430440 264.142676 -0.000000 0.319948 0.479083 -0.345035
5.220000 136.429492 38.728562 -0.000000 0.191300 0.161926 -0.100860 -6.666292 271.319201 -0.000000 0.326868 0.476072 -0.345534
5.225000 108.495176 -51.762703 -0.000000 0.183010 0.167470 -0.101108 -16.233827 282.100926 -0.000000 0.333549 0.472224 -0.346342
5.230000 80.261756 -141.376262 -0.000000 0.174691 0.173614 -0.101469 -26.742776 297.421659 -0.000000 0.339708 0.467643 -0.346635
5.235000 51.546983 -226.582781 -0.000000 0.166390 0.180480 -0.102127 -38.098371 317.816640 -0.000000 0.345507 0.462300 -0.347178
5.240000 22.508930 -302.561662 -0.000000 0.158366 0.187542 -0.102682 -50.418699 343.365870 -0.000000 0.351203 0.456015 -0.347566
5.245000 -6.727109 -363.946692 -0.000000 0.150339 0.194982 -0.103519 -62.964828 373.888035 -0.000000 0.357106 0.449048 -0.348124
5.250000 -33.150479 -406.006104 -0.000000 0.143664 0.202728 -0.103245 -76.896785 408.530009 -0.000000 0.362523 0.441315 -0.348533
5.255000 -54.606654 -426.064088 -0.000000 0.137660 0.210268 -0.102701 -91.573638 446.431985 -0.000000 0.367567 0.433251 -0.348939
5.260000 -69.298104 -423.932960 -0.000000 0.132177 0.217724 -0.102672 -105.977946 486.794059 -0.000000 0.372214 0.424699 -0.349277
5.265000 -75.375882 -401.937273 -0.000000 0.127060 0.225416 -0.102648 -119.741838 528.873430 -0.000000 0.376264 0.416086 -0.349450
5.270000 -73.136389 -363.917873 -0.000000 0.122279 0.233739 -0.102628 -130.688851 572.577347 -0.000000 0.379984 0.406756 -0.349698
5.275000 -62.186080 -314.972571 -0.000000 0.117909 0.242672 -0.102618 -138.236205 617.516623 -0.000000 0.383353 0.396755 -0.349786
5.280000 -42.504276 -260.578495 -0.000000 0.113879 0.251924 -0.102761 -143.164193 662.769615 -0.000000 0.386581 0.386752 -0.349009
5.285000 -16.132781 -205.606849 -0.000000 0.110486 0.261718 -0.102774 -144.138315 707.582604 -0.000000 0.389380 0.376116 -0.348342
5.290000 15.315024 -154.206985 -0.000000 0.107708 0.271655 -0.102671 -143.374619 750.351571 -0.000000 0.391601 0.365537 -0.348144
5.295000 48.762665 -109.265739 -0.000000 0.105525 0.281723 -0.102502 -140.352987 790.246920 -0.000000 0.393382 0.354695 -0.348023
5.300000 81.507767 -72.550531 -0.000000 0.104088 0.291871 -0.102314 -136.734722 826.469477 -0.000000 0.394781 0.343939 -0.347499
5.305000 110.804828 -44.920243 -0.000000 0.103316 0.301976 -0.102287 -133.390466 858.948062 -0.000000 0.395866 0.333173 -0.347285
5.310000 134.350257 -26.622216 -0.000000 0.103318 0.312164 -0.102326 -130.604604 888.207984 -0.000000 0.396511 0.322315 -0.346929
5.315000 150.540626 -17.236073 -0.000000 0.104044 0.322401 -0.102456 -129.259631 915.077875 -0.000000 0.396812 0.311472 -0.346570
5.320000 158.451875 -15.893827 -0.000000 0.105544 0.332670 -0.102590 -129.486852 940.803786 -0.000000 0.396742 0.300586 -0.346132
5.325000 157.823425 -21.299704 -0.000000 0.107829 0.343005 -0.102684 -130.847447 966.899913 -0.000000 0.396004 0.289639 -0.345876
5.330000 149.046786 -31.694612 -0.000000 0.110893 0.353355 -0.102762 -133.009869 994.904997 -0.000000 0.394699 0.278653 -0.345672
5.335000 133.175418 -45.013521 -0.000000 0.114684 0.363496 -0.103060 -136.233754 1026.128391 -0.000000 0.392922 0.267701 -0.345464
5.340000 111.755664 -59.433836 -0.000000 0.119245 0.373523 -0.103251 -139.512271 1061.662220 -0.000000 0.390495 0.256986 -0.345184
5.345000 86.671619 -73.338057 -0.000000 0.124179 0.383227 -0.103442 -142.227402 1101.860398 -0.000000 0.387391 0.246464 -0.344992
5.350000 59.760905 -85.675710 -0.000000 0.129767 0.392768 -0.103679 -141.864830 1146.379148 -0.000000 0.383681 0.236271 -0.344827
5.355000 32.778494 -95.727602 -0.000000 0.135903 0.401847 -0.103893 -137.422831 1193.772376 -0.000000 0.379369 0.226445 -0.344547
5.360000 6.985916 -103.238369 -0.000000 0.142469 0.410675 -0.104055 -126.185409 1242.167929 -0.000000 0.374513 0.216827 -0.344289
5.365000 -16.677223 -108.093398 -0.000000 0.149529 0.419207 -0.104289 -106.831192 1289.090678 -0.000000 0.369104 0.207402 -0.343953
5.370000 -37.535641 -110.286794 -0.000000 0.157054 0.427370 -0.104386 -79.478046 1331.643911 -0.000000 0.363202 0.198263 -0.343692
5.375000 -55.091150 -109.911492 -0.000000 0.164900 0.435003 -0.104622 -46.082110 1366.777388 -0.000000 0.356844 0.189702 -0.343477
5.380000 -69.298983 -106.960579 -0.000000 0.173116 0.442471 -0.104932 -6.447359 1391.721589 -0.000000 0.350145 0.181699 -0.343304
5.385000 -80.111607 -101.436660 -0.000000 0.181675 0.449210 -0.105145 36.974384 1403.898205 -0.000000 0.343094 0.174171 -0.343186
